<svg width="126" height="126" viewBox="0 0 126 126" fill="none" xmlns="http://www.w3.org/2000/svg">
<path d="M63 89.6673C77.7273 89.6673 89.6667 77.728 89.6667 63.0007C89.6667 48.2731 77.7273 36.334 63 36.334C48.2724 36.334 36.3333 48.2731 36.3333 63.0007C36.3333 77.728 48.2724 89.6673 63 89.6673Z" stroke="white" stroke-width="6" stroke-linecap="round" stroke-linejoin="round"/>
<path d="M3 89.6667V36.3333C3 17.9239 17.9239 3 36.3333 3H89.6667C108.076 3 123 17.9239 123 36.3333V89.6667C123 108.076 108.076 123 89.6667 123H36.3333C17.9239 123 3 108.076 3 89.6667Z" stroke="white" stroke-width="6"/>
<path d="M99.6667 26.4002L99.7333 26.3262" stroke="white" stroke-width="6" stroke-linecap="round" stroke-linejoin="round"/>
</svg>
