<svg width="126" height="126" viewBox="0 0 126 126" fill="none" xmlns="http://www.w3.org/2000/svg">
<path d="M63 123C96.1368 123 123 96.1368 123 63C123 29.8629 96.1368 3 63 3C29.8629 3 3 29.8629 3 63C3 96.1368 29.8629 123 63 123Z" stroke="white" stroke-width="6" stroke-linecap="round" stroke-linejoin="round"/>
<path d="M76.9998 105V93.822C77.1498 91.965 76.8924 90.0978 76.2438 88.3452C75.5958 86.5926 74.5716 84.9942 73.2402 83.6568C85.8 82.2936 99 77.6586 99 56.3934C98.9988 50.9554 96.8508 45.7261 93 41.7877C94.8234 37.0303 94.6944 31.7717 92.64 27.1043C92.64 27.1043 87.9198 25.7412 76.9998 32.8687C67.8318 30.4493 58.1682 30.4493 49 32.8687C38.08 25.7412 33.3599 27.1043 33.3599 27.1043C31.3054 31.7717 31.1765 37.0303 32.9999 41.7877C29.1205 45.7553 26.9701 51.0318 26.9999 56.5098C26.9999 77.6196 40.1999 82.2546 52.7598 83.7732C51.444 85.0974 50.429 86.6766 49.7812 88.4082C49.1333 90.1392 48.8672 91.9836 49 93.822V105" stroke="white" stroke-width="6" stroke-linecap="round" stroke-linejoin="round"/>
<path d="M49 97.2137C37 101.004 27 97.2137 21 85.5293" stroke="white" stroke-width="6" stroke-linecap="round" stroke-linejoin="round"/>
</svg>
