<svg width="126" height="92" viewBox="0 0 126 92" fill="none" xmlns="http://www.w3.org/2000/svg">
<path d="M75 45.6035L54 57.6035V33.6035L75 45.6035Z" fill="white" stroke="white" stroke-width="6" stroke-linecap="round" stroke-linejoin="round"/>
<path d="M3 49.8456V41.355C3 23.9829 3 15.2969 8.43294 9.70812C13.8659 4.1193 22.4194 3.87738 39.5261 3.39354C47.6324 3.16428 55.9128 3 63 3C70.0872 3 78.3678 3.16428 86.4738 3.39354C103.58 3.87738 112.134 4.1193 117.567 9.70812C123 15.2969 123 23.9829 123 41.355V49.8456C123 67.2174 123 75.9036 117.567 81.492C112.134 87.081 103.581 87.3228 86.4744 87.807C78.3678 88.0362 70.0872 88.2006 63 88.2006C55.9128 88.2006 47.632 88.0362 39.5256 87.807C22.4191 87.3228 13.8658 87.081 8.43288 81.492C3 75.9036 3 67.2174 3 49.8456Z" stroke="white" stroke-width="6"/>
</svg>
